<svg version="1.1" id="Layer_1" xmlns="http://www.w3.org/2000/svg" xmlns:xlink="http://www.w3.org/1999/xlink" x="0px" y="0px"
	 width="100%" viewBox="0 0 96 96" enable-background="new 0 0 96 96" xml:space="preserve">
<path fill="#010101" opacity="1.000000" stroke="none" 
	d="
M53.000000,97.000000 
	C35.333336,97.000000 18.166674,97.000000 1.000007,97.000000 
	C1.000005,65.000008 1.000005,33.000019 1.000002,1.000020 
	C32.999985,1.000013 64.999969,1.000013 96.999969,1.000007 
	C96.999977,32.999981 96.999977,64.999962 96.999985,96.999969 
	C82.500000,97.000000 68.000000,97.000000 53.000000,97.000000 
M47.847385,79.997971 
	C49.227009,79.994446 50.606632,79.990921 52.884571,79.997063 
	C55.717274,79.997063 58.549976,79.997063 61.382679,79.997063 
	C61.362980,79.651833 61.343277,79.306610 61.323578,78.961380 
	C59.888340,77.976440 58.453106,76.991501 57.253735,75.595894 
	C57.443817,75.335182 57.683422,75.133217 58.682377,75.003128 
	C60.467300,75.407600 62.252224,75.812065 64.795341,76.102730 
	C65.984131,74.417923 67.172913,72.733109 68.666878,70.467407 
	C67.732124,68.639534 66.797371,66.811661 66.040085,64.262817 
	C68.685738,59.276272 63.879875,60.196896 62.135540,58.250000 
	C69.051247,57.149723 73.090721,50.557709 71.530670,42.918129 
	C69.637444,33.647015 61.129883,25.989172 51.721252,25.087255 
	C42.387077,24.192474 32.956158,30.148657 29.248901,39.279865 
	C26.260216,46.641186 27.937988,53.335754 34.218197,58.688854 
	C34.172775,61.460979 30.966869,65.488922 37.718151,65.896515 
	C38.163723,65.870407 38.609295,65.844307 39.292713,66.441505 
	C40.190834,67.295097 41.088955,68.148689 42.129524,69.390038 
	C42.129524,69.390038 42.087402,69.800972 42.018578,70.587158 
	C42.035770,71.112923 42.052959,71.638680 41.944141,72.712952 
	C42.683739,74.021729 43.423336,75.330498 44.102135,77.422997 
	C45.074909,78.275444 46.047684,79.127892 47.847385,79.997971 
M38.540009,71.179497 
	C37.089424,70.277069 35.241924,68.347031 34.282978,68.717430 
	C32.907024,69.248894 31.115646,71.753738 31.428942,72.879974 
	C31.875210,74.484230 34.069061,75.602348 35.516380,76.928131 
	C36.618092,75.255081 37.719807,73.582031 38.540009,71.179497 
z"/>
<path fill="#EAEAEA" opacity="1.000000" stroke="none" 
	d="
M42.087402,69.800972 
	C42.087402,69.800972 42.129524,69.390038 42.172852,68.849388 
	C44.805656,63.837982 44.959042,59.399506 42.139679,54.753807 
	C42.296963,54.337219 42.354427,54.168560 42.615608,53.975449 
	C42.902084,53.429844 42.984848,52.908684 43.531124,52.344086 
	C48.477699,52.024868 52.960766,51.749092 57.443829,51.473320 
	C57.449734,50.966225 57.455643,50.459133 57.461548,49.952042 
	C52.152691,49.952042 46.843830,49.952042 40.654881,49.952042 
	C42.494495,47.865868 43.526703,46.995548 44.177895,45.898968 
	C45.933342,42.942844 46.650307,39.372482 43.371078,37.589375 
	C41.570259,36.610165 37.895664,37.376144 35.988373,38.692150 
	C33.127151,40.666351 31.417627,44.816559 34.456486,47.228271 
	C37.422985,49.582565 37.919285,52.792088 39.770306,55.757103 
	C37.823288,56.793690 35.905518,57.491146 33.987751,58.188599 
	C27.937988,53.335754 26.260216,46.641186 29.248901,39.279865 
	C32.956158,30.148657 42.387077,24.192474 51.721252,25.087255 
	C61.129883,25.989172 69.637444,33.647015 71.530670,42.918129 
	C73.090721,50.557709 69.051247,57.149723 61.591896,58.531338 
	C60.018944,58.902416 58.989635,58.992153 57.920479,58.967873 
	C57.880630,58.853851 58.080566,58.718277 58.004410,58.459499 
	C57.284882,58.399651 56.641510,58.598579 55.685692,58.943413 
	C55.517849,61.074451 55.662453,63.059589 55.499977,65.069550 
	C53.968670,65.344528 52.744438,65.594673 51.520210,65.844810 
	C51.566448,66.230705 51.612682,66.616600 51.658920,67.002495 
	C53.376839,67.002495 55.094753,67.002495 56.932045,67.328262 
	C56.979160,68.107338 56.906902,68.560646 56.655594,69.130661 
	C56.256664,69.439842 56.099064,69.674194 55.598236,70.070168 
	C53.795189,70.112442 52.397636,70.034988 50.954071,69.674286 
	C50.591221,69.091400 50.274391,68.791756 49.957561,68.492111 
	C49.638367,68.979729 49.319168,69.467346 48.575378,70.062454 
	C46.129658,70.046959 44.108532,69.923965 42.087402,69.800972 
M55.361687,38.066673 
	C55.026062,39.798832 54.156078,41.632183 54.461117,43.243023 
	C55.196728,47.127674 57.891411,49.631035 61.864704,48.961590 
	C63.533642,48.680393 65.850487,46.277611 66.074295,44.599457 
	C66.576462,40.834061 64.512672,37.802662 60.608036,36.873314 
	C59.175098,36.532257 57.480064,37.292377 55.361687,38.066673 
z"/>
<path fill="#131215" opacity="1.000000" stroke="none" 
	d="
M55.807056,65.044724 
	C55.662453,63.059589 55.517849,61.074451 56.033485,59.015160 
	C57.156006,58.866760 57.618286,58.792519 58.080566,58.718277 
	C58.080566,58.718277 57.880630,58.853851 57.901672,59.313400 
	C58.509785,61.360897 58.670109,63.762012 59.783798,64.346474 
	C61.459938,65.226097 63.803051,64.834793 65.862617,64.983788 
	C66.797371,66.811661 67.732124,68.639534 68.186508,70.680290 
	C67.194679,70.310440 66.683228,69.727699 66.292313,69.048981 
	C66.241943,68.928993 66.071022,68.904991 65.508316,68.904510 
	C58.539055,70.436729 63.104813,73.595680 64.037148,76.216537 
	C62.252224,75.812065 60.467300,75.407600 58.294434,74.589912 
	C56.686447,73.539352 55.497150,72.433472 54.240696,72.351021 
	C50.197178,72.085670 46.128891,72.197853 42.070152,72.164444 
	C42.052959,71.638680 42.035770,71.112923 42.052990,70.194061 
	C44.108532,69.923965 46.129658,70.046959 48.901657,70.180954 
	C50.101715,70.113823 50.550900,70.035683 51.000088,69.957535 
	C52.397636,70.034988 53.795189,70.112442 55.889374,70.118408 
	C56.668888,69.702599 56.751766,69.358276 56.834644,69.013962 
	C56.906902,68.560646 56.979160,68.107338 56.976170,67.030319 
	C56.536301,65.952644 56.171677,65.498688 55.807056,65.044724 
z"/>
<path fill="#1E1E1F" opacity="1.000000" stroke="none" 
	d="
M34.102974,58.438728 
	C35.905518,57.491146 37.823288,56.793690 39.903160,55.521809 
	C40.723461,54.965500 41.381660,54.983620 42.039860,55.001740 
	C44.959042,59.399506 44.805656,63.837982 42.101627,68.655510 
	C41.088955,68.148689 40.190834,67.295097 39.312927,65.839615 
	C39.806599,64.034866 40.280060,62.832012 40.753521,61.629158 
	C40.135494,61.367676 39.517471,61.106190 38.899445,60.844707 
	C38.284142,62.504623 37.668835,64.164543 37.053528,65.824463 
	C30.966869,65.488922 34.172775,61.460979 34.102974,58.438728 
z"/>
<path fill="#B6B5BA" opacity="1.000000" stroke="none" 
	d="
M42.007149,72.438705 
	C46.128891,72.197853 50.197178,72.085670 54.240696,72.351021 
	C55.497150,72.433472 56.686447,73.539352 57.939514,74.583344 
	C57.683422,75.133217 57.443817,75.335182 56.737213,75.827652 
	C52.201443,76.252701 48.182190,76.445984 44.162937,76.639275 
	C43.423336,75.330498 42.683739,74.021729 42.007149,72.438705 
z"/>
<path fill="#252428" opacity="1.000000" stroke="none" 
	d="
M38.680763,71.544235 
	C37.719807,73.582031 36.618092,75.255081 35.516380,76.928131 
	C34.069061,75.602348 31.875210,74.484230 31.428942,72.879974 
	C31.115646,71.753738 32.907024,69.248894 34.282978,68.717430 
	C35.241924,68.347031 37.089424,70.277069 38.680763,71.544235 
z"/>
<path fill="#28272C" opacity="1.000000" stroke="none" 
	d="
M65.951355,64.623306 
	C63.803051,64.834793 61.459938,65.226097 59.783798,64.346474 
	C58.670109,63.762012 58.509785,61.360897 57.941525,59.427422 
	C58.989635,58.992153 60.018944,58.902416 61.434418,58.876427 
	C63.879875,60.196896 68.685738,59.276272 65.951355,64.623306 
z"/>
<path fill="#131215" opacity="1.000000" stroke="none" 
	d="
M44.132538,77.031136 
	C48.182190,76.445984 52.201443,76.252701 56.619282,76.032990 
	C58.453106,76.991501 59.888340,77.976440 61.323578,78.961380 
	C61.343277,79.306610 61.362980,79.651833 61.382679,79.997063 
	C58.549976,79.997063 55.717274,79.997063 52.196121,79.739807 
	C50.011932,79.648476 48.516197,79.814407 47.020458,79.980339 
	C46.047684,79.127892 45.074909,78.275444 44.132538,77.031136 
z"/>
<path fill="#29292B" opacity="1.000000" stroke="none" 
	d="
M64.416245,76.159637 
	C63.104813,73.595680 58.539055,70.436729 65.573959,68.972839 
	C66.031387,69.017662 66.171768,69.144966 66.171768,69.144966 
	C66.683228,69.727699 67.194679,70.310440 68.033920,70.970734 
	C67.172913,72.733109 65.984131,74.417923 64.416245,76.159637 
z"/>
<path fill="#282928" opacity="1.000000" stroke="none" 
	d="
M37.385841,65.860489 
	C37.668835,64.164543 38.284142,62.504623 38.899445,60.844707 
	C39.517471,61.106190 40.135494,61.367676 40.753521,61.629158 
	C40.280060,62.832012 39.806599,64.034866 39.194004,65.527954 
	C38.609295,65.844307 38.163723,65.870407 37.385841,65.860489 
z"/>
<path fill="#1A191C" opacity="1.000000" stroke="none" 
	d="
M47.433922,79.989151 
	C48.516197,79.814407 50.011932,79.648476 51.746964,79.734970 
	C50.606632,79.990921 49.227009,79.994446 47.433922,79.989151 
z"/>
<path fill="#2A2B2A" opacity="1.000000" stroke="none" 
	d="
M42.139679,54.753807 
	C41.381660,54.983620 40.723461,54.965500 39.932411,55.182671 
	C37.919285,52.792088 37.422985,49.582565 34.456486,47.228271 
	C31.417627,44.816559 33.127151,40.666351 35.988373,38.692150 
	C37.895664,37.376144 41.570259,36.610165 43.371078,37.589375 
	C46.650307,39.372482 45.933342,42.942844 44.177895,45.898968 
	C43.526703,46.995548 42.494495,47.865868 40.654881,49.952042 
	C46.843830,49.952042 52.152691,49.952042 57.461548,49.952042 
	C57.455643,50.459133 57.449734,50.966225 57.443829,51.473320 
	C52.960766,51.749092 48.477699,52.024868 43.190491,52.198990 
	C41.954155,52.156124 41.521969,52.214912 41.089779,52.273701 
	C41.530483,52.849098 41.971188,53.424500 42.411892,53.999897 
	C42.354427,54.168560 42.296963,54.337219 42.139679,54.753807 
z"/>
<path fill="#141414" opacity="1.000000" stroke="none" 
	d="
M55.633137,37.808434 
	C57.480064,37.292377 59.175098,36.532257 60.608036,36.873314 
	C64.512672,37.802662 66.576462,40.834061 66.074295,44.599457 
	C65.850487,46.277611 63.533642,48.680393 61.864704,48.961590 
	C57.891411,49.631035 55.196728,47.127674 54.461117,43.243023 
	C54.156078,41.632183 55.026062,39.798832 55.633137,37.808434 
z"/>
<path fill="#E8E9E9" opacity="1.000000" stroke="none" 
	d="
M55.499977,65.069550 
	C56.171677,65.498688 56.536301,65.952644 56.856796,66.704552 
	C55.094753,67.002495 53.376839,67.002495 51.658920,67.002495 
	C51.612682,66.616600 51.566448,66.230705 51.520210,65.844810 
	C52.744438,65.594673 53.968670,65.344528 55.499977,65.069550 
z"/>
<path fill="#E8E9E9" opacity="1.000000" stroke="none" 
	d="
M50.954071,69.674286 
	C50.550900,70.035683 50.101715,70.113823 49.326248,70.073463 
	C49.319168,69.467346 49.638367,68.979729 49.957561,68.492111 
	C50.274391,68.791756 50.591221,69.091400 50.954071,69.674286 
z"/>
<path fill="#E8E9E9" opacity="1.000000" stroke="none" 
	d="
M58.004410,58.459499 
	C57.618286,58.792519 57.156006,58.866760 56.345932,58.869255 
	C56.641510,58.598579 57.284882,58.399651 58.004410,58.459499 
z"/>
<path fill="#E8E9E9" opacity="1.000000" stroke="none" 
	d="
M42.615608,53.975449 
	C41.971188,53.424500 41.530483,52.849098 41.089779,52.273701 
	C41.521969,52.214912 41.954155,52.156124 42.726978,52.242432 
	C42.984848,52.908684 42.902084,53.429844 42.615608,53.975449 
z"/>
<path fill="#E8E9E9" opacity="1.000000" stroke="none" 
	d="
M56.655594,69.130661 
	C56.751766,69.358276 56.668888,69.702599 56.294876,69.998672 
	C56.099064,69.674194 56.256664,69.439842 56.655594,69.130661 
z"/>
<path fill="#29292B" opacity="1.000000" stroke="none" 
	d="
M65.965744,68.949326 
	C66.071022,68.904991 66.241943,68.928993 66.292313,69.048981 
	C66.171768,69.144966 66.031387,69.017662 65.965744,68.949326 
z"/>
</svg>